<?xml version="1.0" standalone="no"?>
<!DOCTYPE svg PUBLIC "-//W3C//DTD SVG 20010904//EN"
 "http://www.w3.org/TR/2001/REC-SVG-20010904/DTD/svg10.dtd">
<svg version="1.0" xmlns="http://www.w3.org/2000/svg"
 width="260.000000pt" height="260.000000pt" viewBox="0 0 260.000000 260.000000"
 preserveAspectRatio="xMidYMid meet">
<metadata>
Created by potrace 1.11, written by Peter Selinger 2001-2013
</metadata>
<g transform="translate(0.000000,260.000000) scale(0.100000,-0.100000)"
fill="#000000" stroke="none">
<path d="M448 1318 c-180 -387 -330 -711 -334 -721 -6 -16 2 -17 105 -15 l112
3 73 160 73 160 292 0 292 0 71 -163 71 -162 113 0 113 0 -17 39 c-95 220
-628 1401 -632 1401 -3 0 -152 -316 -332 -702z m431 8 c50 -115 90 -211 88
-213 -2 -2 -92 -2 -200 -1 l-197 3 81 175 c44 96 89 195 100 219 11 26 23 41
28 35 5 -5 50 -103 100 -218z"/>
<path d="M1925 1963 c-57 -8 -130 -36 -184 -71 -105 -69 -156 -174 -149 -306
8 -154 99 -253 314 -342 228 -94 283 -147 284 -270 1 -194 -240 -297 -376
-160 -40 39 -74 117 -74 168 0 23 -9 23 -119 -3 -104 -24 -102 -21 -71 -121
41 -132 145 -244 258 -279 60 -18 199 -23 261 -9 254 56 394 325 300 576 -43
113 -148 192 -374 280 -76 30 -111 50 -147 85 -42 40 -48 50 -48 88 0 98 85
171 197 171 78 -1 151 -45 191 -117 8 -13 21 -8 90 32 45 26 82 50 82 54 0 15
-44 75 -84 116 -88 88 -213 126 -351 108z"/>
</g>
</svg>
